<svg width="169" height="160" viewBox="0 0 169 160" fill="none" xmlns="http://www.w3.org/2000/svg">
<path d="M97.146 66.239L76.244 69.948C87.755 115.763 108.44 145.153 152.881 159.131C156.427 153.085 163.075 143.796 168.158 139.21C127.13 128.516 105.965 102.984 97.146 66.239ZM13.884 54.672L13.16 76.484L159.688 81.346L160.411 59.534L13.884 54.672ZM10.223 0.488899L9.49896 22.301L166.053 27.495L166.777 5.6831L10.223 0.488899ZM75.466 8.4648L74.03 51.737C73.05 81.289 64.401 119.039 0.990967 135.425C5.24897 139.793 11.272 149.326 13.384 154.679C84.814 135.389 95.473 90.133 96.722 52.49L98.158 9.2176L75.466 8.4648Z" fill="white"/>
</svg>
