<svg width="630" height="339" viewBox="0 0 630 339" fill="none" xmlns="http://www.w3.org/2000/svg">
<path d="M10.5455 187.091V165.273L78.1818 138.182V161.091L35.0909 176L35.8182 174.909V177.455L35.0909 176.364L78.1818 191.273V214.182L10.5455 187.091ZM472.25 116.545L442.25 228H420.977L450.977 116.545H472.25ZM551.182 187.091L483.545 214.182V191.273L526.636 176.364L525.909 177.455V174.909L526.636 176L483.545 161.091V138.182L551.182 165.273V187.091Z" fill="#fff"/>
<path d="M417.5 150C417.5 232.554 348.788 299.5 264 299.5C179.212 299.5 110.5 232.554 110.5 150C110.5 67.4458 179.212 0.5 264 0.5C348.788 0.5 417.5 67.4458 417.5 150Z" stroke="white"/>
<path  d="M271.146 147.239L250.244 150.948C261.755 196.763 282.44 226.153 326.881 240.131C330.427 234.085 337.075 224.796 342.158 220.21C301.13 209.516 279.965 183.984 271.146 147.239ZM187.884 135.672L187.16 157.484L333.688 162.346L334.411 140.534L187.884 135.672ZM184.223 81.4889L183.499 103.301L340.053 108.495L340.777 86.6831L184.223 81.4889ZM249.466 89.4648L248.03 132.737C247.05 162.289 238.401 200.039 174.991 216.425C179.249 220.793 185.272 230.326 187.384 235.679C258.814 216.389 269.473 171.133 270.722 133.49L272.158 90.2176L249.466 89.4648Z" fill="#8800c7"/>
</svg>
